<?xml version="1.0" standalone="no"?><!-- Generator: Gravit.io --><svg xmlns="http://www.w3.org/2000/svg" xmlns:xlink="http://www.w3.org/1999/xlink" style="isolation:isolate" viewBox="51.088 93.058 149.145 47.629" width="149.145" height="47.629"><g><path d=" M 87.608 109.5 C 87.421 108.062 86.983 106.687 86.358 105.437 C 85.921 104.562 85.358 103.75 84.608 103.125 C 83.671 102.312 82.483 101.875 81.233 101.875 C 80.671 101.875 80.108 101.937 79.546 102.125 L 81.171 98.625 L 81.358 98.187 L 80.983 98 L 77.796 95.75 L 77.671 95.625 L 74.983 95.625 C 74.421 95.5 73.858 95.25 73.421 94.875 C 71.921 93.687 70.108 93.062 68.171 93.062 C 66.233 93 64.358 93.625 62.858 94.937 L 62.858 94.937 L 57.358 100.312 L 57.358 100.312 L 57.233 100.437 L 54.046 103.562 L 54.046 103.562 C 53.483 104.125 53.046 104.75 52.733 105.5 C 52.108 106.812 51.671 108.125 51.483 109.562 C 50.858 112.875 50.983 116.25 51.796 119.5 C 52.733 122.937 54.358 126.125 56.546 128.938 C 59.608 132.813 63.483 136.063 67.858 138.563 L 69.233 139.375 L 69.546 139.563 L 69.858 139.375 L 71.233 138.563 C 75.608 136.063 79.421 132.75 82.608 128.875 C 84.796 126.062 86.421 122.875 87.358 119.437 C 88.046 116.187 88.171 112.812 87.608 109.5 Z " fill="rgb(255,255,255)"/><path d=" M 66.858 105.875 L 61.921 105.875 L 61.483 113.312 C 61.733 113.375 62.046 113.437 62.296 113.562 L 66.858 105.875 Z " fill="rgb(0,0,0)"/><path d=" M 63.046 122.75 L 63.046 122.75 L 62.983 123.375 L 63.233 123.5 C 63.733 123.687 64.233 123.812 64.796 123.75 C 65.358 123.75 65.921 123.687 66.421 123.437 L 66.421 122.812 C 65.921 123.062 65.358 123.187 64.796 123.187 C 64.296 123.187 63.733 123.062 63.233 122.875 L 63.046 122.75 Z " fill="rgb(0,0,0)"/><path d=" M 63.233 125.062 L 63.046 124.937 L 62.983 124.937 L 62.983 125.562 L 63.233 125.687 C 63.733 125.875 64.233 126 64.796 125.937 C 65.233 125.937 65.671 125.875 66.046 125.75 L 66.046 125.187 C 65.671 125.312 65.233 125.375 64.796 125.375 C 64.233 125.437 63.671 125.312 63.233 125.062 Z " fill="rgb(0,0,0)"/><path d=" M 63.233 127.25 L 63.046 127.125 L 62.983 127.125 L 62.983 127.75 L 63.233 127.875 C 63.733 128.063 64.233 128.125 64.733 128.125 C 64.983 128.125 65.233 128.125 65.483 128.063 L 65.483 127.5 C 65.233 127.562 64.983 127.562 64.733 127.562 C 64.233 127.625 63.671 127.5 63.233 127.25 Z " fill="rgb(0,0,0)"/><path d=" M 68.796 95.625 C 69.233 95.687 69.608 95.875 69.983 96.062 C 70.358 96.25 70.733 96.5 71.046 96.75 C 71.546 97.187 72.108 97.562 72.671 97.875 L 72.671 96.937 C 72.233 96.687 71.858 96.437 71.421 96.187 C 71.046 95.937 70.608 95.75 70.233 95.562 C 69.796 95.375 69.358 95.25 68.921 95.187 C 68.483 95.125 68.046 95.125 67.546 95.187 L 67.483 95.187 L 67.483 95.562 L 67.546 95.562 C 67.921 95.5 68.358 95.562 68.796 95.625 Z " fill="rgb(0,0,0)"/><path d=" M 87.046 109.625 C 86.858 108.25 86.421 106.938 85.858 105.688 C 85.483 104.875 84.921 104.125 84.233 103.563 C 83.421 102.875 82.296 102.438 81.233 102.438 C 79.796 102.438 78.421 103 77.421 104 L 75.796 102.25 L 76.046 101.688 L 78.296 101.688 L 78.046 102.25 L 78.921 102.25 L 80.671 98.438 L 77.483 96.188 L 74.983 96.188 C 74.296 96.063 73.608 95.75 73.108 95.313 C 71.733 94.188 69.983 93.563 68.171 93.563 C 66.358 93.438 64.608 94.063 63.233 95.25 L 57.546 100.813 L 57.546 100.813 L 54.358 103.938 C 53.858 104.438 53.421 105.063 53.108 105.688 C 52.546 106.938 52.108 108.25 51.921 109.625 C 51.296 112.813 51.421 116.125 52.233 119.313 C 53.171 122.688 54.733 125.813 56.921 128.563 C 60.046 132.438 63.858 135.688 68.171 138.125 L 69.546 138.938 L 70.921 138.125 C 75.233 135.625 79.046 132.375 82.171 128.563 C 84.296 125.813 85.858 122.688 86.796 119.313 C 87.546 116.125 87.671 112.813 87.046 109.625 Z  M 63.733 95.813 C 64.108 95.438 65.358 94.313 68.108 94.313 C 69.733 94.313 71.358 94.875 72.608 95.938 C 73.421 96.5 74.108 96.938 74.983 96.938 L 77.233 96.938 L 79.733 98.688 L 78.733 100.875 L 76.483 100.875 C 76.171 100.875 75.858 100.75 75.608 100.5 C 75.296 100.188 75.108 99.813 75.046 99.375 L 74.671 99.375 C 74.671 99.625 74.671 99.938 74.796 100.188 C 74.858 100.438 75.046 100.688 75.233 100.938 C 75.296 101.063 75.421 101.125 75.546 101.188 L 74.983 102.375 L 76.483 104 L 75.358 104 L 73.358 102.313 L 72.921 102.313 L 74.358 104 L 71.421 104 L 69.733 102.313 L 68.733 102.313 C 68.921 101.875 69.046 101.375 69.046 100.875 C 69.046 100.813 69.046 100.688 69.046 100.625 L 69.046 100.375 L 69.046 100.25 L 69.046 100.125 L 68.983 99.875 C 68.921 99.5 68.796 99.188 68.608 98.875 C 68.421 98.563 68.233 98.25 67.983 98 L 67.921 97.938 L 67.796 97.875 L 67.608 97.688 C 67.483 97.563 67.296 97.5 67.171 97.375 C 66.546 97 65.983 96.813 65.421 96.75 C 65.296 96.75 65.108 96.75 64.921 96.75 L 64.921 97.125 C 65.546 97.125 66.171 97.313 66.671 97.688 C 66.796 97.75 66.921 97.875 67.046 97.938 L 67.233 98.125 L 67.296 98.188 L 67.358 98.25 C 67.546 98.5 67.733 98.75 67.858 99 C 67.983 99.25 68.108 99.563 68.171 99.875 L 68.171 100.125 L 68.171 100.25 L 68.171 100.625 C 68.171 100.688 68.171 100.75 68.171 100.875 C 68.108 101.5 67.921 102.063 67.546 102.5 L 67.108 103.125 L 69.233 103.125 L 70.171 104.063 L 61.421 104.063 L 61.421 100.813 L 58.608 100.813 L 63.733 95.813 Z  M 59.796 107.125 C 59.483 108.313 58.483 109.188 57.296 109.313 L 56.983 109.313 C 55.483 109.313 54.171 108.125 54.046 106.625 C 54.046 106.563 54.046 106.5 54.046 106.438 C 54.046 105.625 54.358 104.875 54.983 104.313 L 57.796 101.563 L 60.608 101.563 L 60.608 104.313 L 59.796 107.125 Z  M 85.983 119.125 C 85.421 121.063 84.671 123 83.671 124.75 L 83.671 124.75 L 83.483 125 L 83.358 125.188 L 83.171 125.438 L 83.046 125.75 L 82.921 126 L 82.608 126.438 L 82.483 126.625 L 82.233 126.938 L 82.108 127.125 L 81.858 127.438 L 81.733 127.563 L 81.358 128.063 L 81.358 128.063 L 81.046 128.5 C 79.733 130.125 78.233 131.688 76.608 133.063 C 75.296 134.188 73.983 135.188 72.546 136.125 C 71.858 136.563 71.108 137.063 70.358 137.5 L 69.421 138.063 L 69.421 138.063 L 68.483 137.5 C 64.296 135.063 60.546 131.875 57.483 128.125 L 57.233 127.813 L 57.108 127.625 L 56.858 127.25 L 56.733 127 L 56.421 126.563 L 56.358 126.5 L 56.046 126 L 56.046 126 C 54.671 123.875 53.608 121.563 52.983 119.125 C 52.233 116.063 52.108 112.875 52.671 109.75 C 52.796 108.813 53.046 107.875 53.358 107 C 53.421 107.563 53.671 108.125 53.983 108.563 C 53.858 109 53.796 109.438 53.671 109.938 C 53.546 110.688 53.421 111.5 53.421 112.25 L 58.546 114.625 C 58.608 114.5 58.733 114.375 58.858 114.25 C 58.921 114.188 59.046 114.063 59.108 114 L 55.983 109.938 C 56.546 110.063 57.108 110.125 57.671 110 L 59.796 113.5 C 60.046 113.375 60.296 113.313 60.608 113.25 L 60.296 108 C 60.421 107.75 60.483 107.563 60.546 107.313 L 61.296 104.813 L 61.296 104.75 L 77.796 104.75 L 77.921 104.625 C 78.796 103.688 79.983 103.188 81.233 103.25 C 82.171 103.25 83.046 103.563 83.733 104.188 C 84.358 104.688 84.796 105.375 85.171 106.063 C 85.733 107.25 86.108 108.5 86.296 109.75 C 86.858 112.875 86.733 116.063 85.983 119.125 Z " fill="rgb(0,0,0)"/><circle vector-effect="non-scaling-stroke" cx="77.35833333333332" cy="98.5" r="0.4375" fill="rgb(0,0,0)"/><path d=" M 74.983 98.75 L 74.983 98.75 C 75.046 98.437 75.296 98.187 75.608 98.125 L 75.608 97.687 L 74.608 97.687 L 74.608 98.75 L 74.983 98.75 Z " fill="rgb(0,0,0)"/><path d=" M 85.233 109.938 C 84.796 107.375 83.733 104.313 81.233 104.313 C 80.046 104.25 78.921 104.875 78.358 105.875 L 69.233 105.875 L 62.983 114 C 63.046 114.063 63.108 114.125 63.233 114.188 C 63.358 114.313 63.483 114.5 63.546 114.625 L 68.046 112.563 L 67.671 114.188 L 63.921 115.375 C 63.983 115.625 64.046 115.938 64.046 116.25 C 63.921 116.25 63.796 116.188 63.671 116.125 C 63.546 116.063 63.421 116 63.296 116 L 63.108 115.938 L 62.733 115.75 C 62.421 115.625 62.108 115.5 61.796 115.5 L 61.608 115.5 L 61.358 115.5 L 60.733 115.5 L 60.483 115.5 L 60.296 115.5 C 59.983 115.563 59.671 115.625 59.358 115.75 L 58.983 115.938 L 58.796 116 C 58.671 116.063 58.546 116.125 58.421 116.125 C 58.296 116.188 58.171 116.188 58.046 116.25 C 58.046 115.938 58.108 115.625 58.171 115.375 L 53.358 113.813 C 53.358 114.375 53.358 114.938 53.421 115.5 L 53.421 115.5 C 53.421 115.563 53.421 115.625 53.421 115.688 C 53.421 115.75 53.421 115.938 53.421 116.063 L 53.421 116.063 C 53.421 116.125 53.421 116.25 53.421 116.313 L 53.921 116.313 L 54.233 116.375 L 54.233 116.375 C 54.546 116.438 54.921 116.563 55.171 116.75 C 55.796 117.063 56.483 117.25 57.171 117.25 C 57.858 117.25 58.546 117.125 59.171 116.75 C 59.296 116.688 59.483 116.625 59.608 116.563 C 59.921 116.438 60.296 116.375 60.671 116.375 L 61.108 116.375 C 61.421 116.375 61.796 116.438 62.108 116.563 C 62.296 116.625 62.421 116.688 62.608 116.75 C 63.233 117.063 63.921 117.25 64.608 117.25 C 65.296 117.25 65.983 117.125 66.608 116.75 L 66.921 116.625 L 66.733 117.375 L 67.421 117.25 L 67.233 118.063 C 66.858 118.125 66.546 118.25 66.233 118.438 C 65.671 118.75 65.108 118.875 64.483 118.875 C 63.858 118.875 63.296 118.75 62.733 118.438 C 62.108 118.125 61.421 117.938 60.733 117.938 C 60.046 117.938 59.358 118.063 58.733 118.438 C 58.171 118.75 57.608 118.875 56.983 118.875 C 56.358 118.875 55.796 118.75 55.233 118.438 C 54.921 118.25 54.608 118.125 54.233 118.063 L 54.233 118.063 L 54.483 118.063 L 54.421 118.063 L 54.296 118.063 L 54.233 118.063 L 54.233 118.063 C 54.046 118.063 53.921 118 53.733 118 C 53.796 118.188 53.796 118.375 53.858 118.563 L 54.171 118.563 L 54.296 118.563 L 54.358 118.563 L 54.546 118.625 L 54.546 118.625 L 54.733 118.688 C 54.921 118.75 55.171 118.875 55.358 118.938 C 55.983 119.25 56.671 119.438 57.358 119.438 C 58.046 119.438 58.733 119.313 59.358 118.938 C 59.921 118.625 60.483 118.5 61.108 118.5 C 61.733 118.5 62.296 118.625 62.858 118.938 C 63.483 119.25 64.171 119.438 64.858 119.438 C 65.546 119.438 66.233 119.313 66.858 118.938 C 67.046 118.813 67.296 118.75 67.483 118.688 L 67.108 120.313 C 66.921 120.375 66.733 120.5 66.546 120.563 C 66.046 120.875 65.421 121 64.858 121 C 64.296 121 63.671 120.875 63.171 120.563 C 62.546 120.25 61.858 120.063 61.171 120.063 C 60.483 120.063 59.796 120.188 59.171 120.563 C 58.483 120.75 57.858 120.875 57.296 120.875 C 56.733 120.875 56.108 120.75 55.608 120.438 L 55.233 120.25 L 55.233 120.25 L 55.233 120.25 L 55.233 120.25 C 54.983 120.125 54.671 120.063 54.421 120 C 54.546 120.313 54.608 120.563 54.733 120.875 L 54.733 120.875 C 55.233 122.125 55.796 123.313 56.483 124.5 L 56.546 124.688 L 56.671 124.938 L 56.796 125.125 L 56.921 125.375 L 57.046 125.563 L 57.171 125.813 L 57.296 126 L 57.421 126.187 L 57.608 126.437 L 57.733 126.625 L 57.921 126.875 L 58.046 127 L 58.358 127.437 C 61.358 131.063 64.983 134.188 69.108 136.5 L 69.483 136.75 L 69.858 136.5 C 73.983 134.125 77.608 131.063 80.546 127.375 L 80.546 127.375 C 80.733 127.188 80.858 126.938 81.046 126.75 L 81.108 126.688 C 81.233 126.5 81.421 126.25 81.546 126.063 L 81.608 126 C 81.921 125.562 82.233 125.063 82.483 124.625 C 83.233 123.375 83.796 122.125 84.296 120.812 L 84.296 120.812 C 84.421 120.562 84.483 120.312 84.546 120.062 C 84.233 120.125 83.983 120.187 83.733 120.312 L 83.733 120.312 L 83.671 120.312 L 83.671 120.312 L 83.671 120.312 L 83.296 120.5 C 82.233 121.062 80.983 121.062 79.921 120.5 C 78.671 119.875 77.171 119.875 75.858 120.5 C 74.796 121.062 73.546 121.062 72.483 120.5 C 72.296 120.437 72.108 120.312 71.921 120.25 L 71.296 117.25 L 72.046 117.375 L 72.046 117.375 L 71.608 115.375 L 73.983 113.063 L 75.546 114.188 L 77.983 111.75 L 80.358 114.25 L 81.921 113.125 L 84.733 115.938 L 85.421 116.625 C 85.421 116.375 85.483 116.125 85.483 115.875 L 85.483 115.875 C 85.483 115.813 85.483 115.813 85.483 115.75 C 85.483 115.688 85.483 115.625 85.483 115.625 L 85.483 115.625 C 85.608 113.688 85.546 111.813 85.233 109.938 Z  M 80.671 110.313 L 80.733 110.188 L 81.608 110.188 L 81.858 109.313 L 81.983 109.313 L 82.233 110.125 L 83.108 110.125 L 83.171 110.25 L 82.421 110.75 L 82.671 111.625 L 82.546 111.688 L 81.796 111.188 L 81.046 111.688 L 80.921 111.625 L 81.171 110.75 L 80.671 110.313 Z  M 78.796 110.188 L 78.671 110.25 L 77.921 109.75 L 77.233 110.25 L 77.108 110.188 L 77.358 109.313 L 76.608 108.813 L 76.671 108.688 L 77.546 108.688 L 77.858 107.813 L 77.983 107.813 L 78.233 108.688 L 79.108 108.688 L 79.171 108.813 L 78.483 109.375 L 78.796 110.188 Z  M 74.733 111.688 L 74.608 111.75 L 73.858 111.25 L 73.108 111.75 L 72.983 111.688 L 73.233 110.813 L 72.483 110.313 L 72.546 110.188 L 73.421 110.188 L 73.671 109.313 L 73.796 109.313 L 74.046 110.125 L 74.921 110.125 L 74.983 110.25 L 74.233 110.75 L 74.733 111.688 Z  M 71.483 121.688 L 70.608 121.5 L 70.608 121.5 L 71.796 127.25 L 71.796 127.25 L 69.483 126.313 L 67.171 127.25 L 67.171 127.25 L 68.358 121.5 L 67.483 121.688 L 67.483 121.688 L 68.608 116.188 L 68.608 116.188 L 67.921 116.313 L 69.358 108.688 L 69.483 108.688 L 70.983 116.313 L 70.296 116.188 L 70.296 116.188 L 71.483 121.688 Z  M 69.921 128 L 70.108 133.438 L 68.796 133.438 L 68.983 128 L 68.983 127.125 L 69.421 126.938 L 69.858 127.125 L 69.921 128 Z  M 68.358 129.563 L 68.358 129.938 C 67.921 129.938 67.483 130.063 67.108 130.25 C 66.421 130.625 65.608 130.813 64.796 130.813 C 64.046 130.813 63.233 130.688 62.608 130.313 L 62.546 130.25 L 62.233 130.125 L 62.171 130.125 C 62.046 130.063 61.983 130.063 61.858 130 L 62.171 129.75 L 62.171 129.75 L 62.171 129.75 L 62.233 129.688 C 62.421 129.75 62.546 129.813 62.733 129.875 L 62.921 130 C 63.483 130.25 64.108 130.375 64.671 130.375 C 65.358 130.375 66.046 130.25 66.671 129.875 C 67.171 129.625 67.733 129.438 68.296 129.438 L 68.358 129.563 Z  M 75.983 129.938 L 76.171 129.813 C 76.296 129.75 76.483 129.688 76.671 129.625 L 77.108 130 C 76.983 130.063 76.858 130.063 76.796 130.125 L 76.796 130.125 L 76.608 130.25 L 76.546 130.313 C 75.858 130.688 75.108 130.813 74.358 130.813 C 73.546 130.813 72.733 130.625 72.046 130.25 C 71.671 130.063 71.233 129.938 70.796 129.938 L 70.796 129.563 L 70.796 129.438 C 71.358 129.438 71.921 129.563 72.421 129.875 C 73.046 130.188 73.733 130.375 74.421 130.375 C 74.858 130.313 75.421 130.188 75.983 129.938 Z  M 66.796 121.125 L 66.796 121.125 L 66.483 122.625 L 66.483 122.625 L 67.421 122.438 L 66.108 128.563 L 68.546 127.375 L 68.483 128.188 L 68.421 128.875 C 67.733 128.875 67.108 129 66.546 129.375 C 65.983 129.625 65.358 129.75 64.733 129.75 C 64.171 129.75 63.608 129.625 63.108 129.375 L 62.983 129.313 C 62.796 129.25 62.608 129.125 62.421 129.063 L 62.421 121.563 L 62.421 121.563 L 61.921 122 L 61.921 129.25 L 61.421 129.688 L 61.421 129.688 L 61.421 121.688 L 62.358 120.938 L 62.421 120.938 L 62.608 121 L 62.671 121.063 C 62.796 121.125 62.983 121.188 63.171 121.25 L 63.171 121.25 C 63.671 121.438 64.171 121.5 64.733 121.5 C 65.483 121.625 66.171 121.438 66.796 121.125 Z  M 72.171 121.125 C 72.796 121.438 73.483 121.625 74.171 121.625 C 74.671 121.625 75.233 121.563 75.733 121.375 L 75.733 121.375 C 75.921 121.313 76.046 121.25 76.233 121.188 L 76.233 121.188 L 76.483 121.063 L 76.546 121.063 L 77.483 121.813 L 77.483 129.75 L 77.483 129.75 L 76.983 129.313 L 76.983 122 L 76.421 121.563 L 76.421 129.125 C 76.233 129.188 76.046 129.25 75.858 129.375 L 75.733 129.438 C 75.233 129.688 74.671 129.813 74.108 129.813 C 73.483 129.813 72.921 129.688 72.358 129.375 C 71.796 129.063 71.108 128.875 70.483 128.875 L 70.421 128.188 L 70.358 127.375 L 72.796 128.563 L 72.608 127.75 L 71.483 122.438 L 72.421 122.625 L 72.171 121.125 L 72.171 121.125 Z " fill="rgb(0,0,0)"/><path d=" M 75.733 123.437 L 75.983 123.312 L 75.983 122.687 L 75.921 122.687 L 75.733 122.812 C 75.233 123.062 74.733 123.125 74.171 123.125 C 73.608 123.125 73.046 123 72.546 122.75 L 72.546 123.375 C 73.546 123.75 74.671 123.812 75.733 123.437 L 75.733 123.437 Z " fill="rgb(0,0,0)"/><path d=" M 75.733 125.062 C 75.233 125.312 74.733 125.375 74.171 125.375 C 73.733 125.375 73.296 125.312 72.921 125.187 L 72.921 125.75 C 73.296 125.875 73.733 125.937 74.171 125.937 C 74.671 125.937 75.233 125.875 75.733 125.687 L 75.983 125.562 L 75.983 124.937 L 75.921 124.937 L 75.733 125.062 Z " fill="rgb(0,0,0)"/><path d=" M 75.733 127.25 C 75.233 127.5 74.733 127.562 74.171 127.562 C 73.921 127.562 73.671 127.562 73.421 127.5 L 73.421 128.063 C 73.671 128.125 73.921 128.125 74.171 128.125 C 74.671 128.125 75.233 128.063 75.733 127.875 L 75.983 127.75 L 75.983 127.125 L 75.921 127.125 L 75.733 127.25 Z " fill="rgb(0,0,0)"/><path d=" M 56.233 107.125 L 56.546 107.375 L 59.733 103 L 59.733 102.437 L 59.233 102.437 L 56.233 107.125 Z " fill="rgb(0,0,0)"/><path d=" M 74.296 118.125 L 74.296 116.25 L 73.546 116.25 L 73.546 116.75 L 73.796 116.75 L 73.796 118.125 L 74.296 118.125 Z " fill="rgb(0,0,0)"/><path d=" M 75.858 117.625 C 75.983 118 76.358 118.25 76.733 118.188 C 76.983 118.125 77.233 117.938 77.296 117.625 C 77.296 117.438 77.171 117.25 76.983 117.125 C 77.108 117.063 77.233 116.875 77.233 116.688 C 77.171 116.313 76.858 116.063 76.483 116.125 C 76.233 116.188 75.983 116.375 75.921 116.688 C 75.921 116.875 76.046 117 76.171 117.125 C 75.983 117.25 75.796 117.438 75.858 117.625 Z  M 76.546 116.938 C 76.421 116.938 76.358 116.875 76.358 116.75 C 76.358 116.625 76.421 116.563 76.546 116.563 C 76.671 116.563 76.733 116.625 76.733 116.75 C 76.733 116.75 76.733 116.75 76.733 116.75 C 76.733 116.813 76.671 116.938 76.546 116.938 C 76.546 116.938 76.546 116.938 76.546 116.938 L 76.546 116.938 Z  M 76.546 117.75 C 76.421 117.75 76.358 117.688 76.358 117.563 C 76.358 117.438 76.421 117.375 76.546 117.375 C 76.671 117.375 76.733 117.438 76.733 117.563 C 76.733 117.688 76.671 117.75 76.546 117.75 C 76.546 117.813 76.546 117.813 76.546 117.75 L 76.546 117.75 Z " fill="rgb(0,0,0)"/><path d=" M 79.296 116.25 L 78.921 116.75 C 78.733 116.938 78.608 117.25 78.608 117.5 C 78.608 117.688 78.733 117.875 78.858 118 C 79.046 118.125 79.233 118.188 79.421 118.188 C 79.796 118.25 80.171 117.938 80.233 117.5 C 80.233 117.5 80.233 117.438 80.233 117.438 C 80.233 117.063 79.983 116.813 79.671 116.75 C 79.671 116.75 79.671 116.75 79.608 116.75 C 79.546 116.75 79.483 116.75 79.421 116.75 L 79.921 116.125 L 79.296 116.25 Z  M 79.358 117.25 C 79.483 117.25 79.608 117.438 79.608 117.563 C 79.608 117.688 79.483 117.75 79.358 117.813 C 79.233 117.813 79.046 117.75 79.046 117.563 C 79.046 117.438 79.108 117.25 79.296 117.25 C 79.296 117.25 79.358 117.25 79.358 117.25 Z " fill="rgb(0,0,0)"/><path d=" M 81.421 117.625 C 81.483 118 81.921 118.25 82.296 118.188 C 82.546 118.125 82.796 117.938 82.858 117.625 C 82.858 117.438 82.733 117.25 82.546 117.125 C 82.671 117.063 82.796 116.875 82.796 116.688 C 82.733 116.313 82.421 116.063 82.046 116.125 C 81.796 116.188 81.546 116.375 81.483 116.688 C 81.483 116.875 81.608 117 81.733 117.125 C 81.546 117.188 81.421 117.438 81.421 117.625 Z  M 82.108 116.938 C 81.983 116.938 81.921 116.875 81.921 116.75 C 81.921 116.625 81.983 116.563 82.108 116.563 C 82.233 116.563 82.296 116.625 82.296 116.75 C 82.296 116.75 82.296 116.75 82.296 116.75 C 82.296 116.813 82.233 116.938 82.108 116.938 C 82.171 116.938 82.171 116.938 82.108 116.938 L 82.108 116.938 Z  M 82.108 117.75 C 81.983 117.75 81.921 117.688 81.921 117.563 C 81.921 117.438 81.983 117.375 82.108 117.375 C 82.233 117.375 82.296 117.438 82.296 117.563 C 82.358 117.688 82.296 117.75 82.108 117.75 C 82.171 117.813 82.171 117.813 82.108 117.75 L 82.108 117.75 Z " fill="rgb(0,0,0)"/><path d=" M 91.796 110.75 C 91.796 106.438 94.108 103.813 98.233 103.813 C 102.358 103.813 104.608 106.438 104.608 110.75 C 104.608 115.063 102.296 117.688 98.171 117.688 C 94.046 117.688 91.796 115 91.796 110.75 Z  M 101.233 110.75 C 101.233 106.5 100.296 104.875 98.233 104.875 C 96.171 104.875 95.233 106.5 95.233 110.75 C 95.233 115 96.171 116.563 98.233 116.563 C 100.296 116.563 101.233 114.938 101.233 110.75 Z " fill="rgb(255,255,255)"/><path d=" M 111.108 116.75 L 110.796 117.437 L 105.233 117.437 L 105.233 116.812 L 106.171 116.375 L 106.171 110.125 L 105.233 108.625 L 105.233 108.375 L 108.671 107.25 L 109.108 107.25 L 109.046 109.562 L 109.108 109.562 C 109.546 108.375 110.483 107.25 111.983 107.25 C 112.921 107.125 113.796 107.812 113.921 108.812 C 113.921 108.875 113.921 109 113.921 109.062 C 113.983 109.937 113.358 110.687 112.483 110.75 C 112.421 110.75 112.421 110.75 112.358 110.75 C 111.546 110.812 110.858 110.187 110.796 109.375 C 110.796 109.312 110.796 109.25 110.796 109.187 C 110.108 109.5 109.546 110 109.108 110.625 L 109.108 116.312 L 111.108 116.75 Z " fill="rgb(255,255,255)"/><path d=" M 119.546 115.75 C 120.421 115.75 121.358 115.438 121.983 114.875 L 122.421 115.375 C 121.671 117 120.296 117.688 118.358 117.688 C 115.733 117.688 113.733 116 113.733 112.625 C 113.733 109.25 116.046 107.313 118.858 107.313 C 121.108 107.313 122.671 108.625 122.671 111 C 122.671 111.438 122.608 111.875 122.546 112.313 L 116.608 112.313 C 116.671 114.313 117.608 115.75 119.546 115.75 Z  M 116.671 111.188 L 119.921 111.188 C 119.983 110.938 119.983 110.625 119.983 110.313 C 119.983 109.25 119.671 108.313 118.608 108.313 C 117.546 108.313 116.858 109.25 116.671 111.188 L 116.671 111.188 Z " fill="rgb(255,255,255)"/><path d=" M 129.858 115.438 C 132.046 115.438 133.421 116.5 133.421 118.688 C 133.421 121.5 130.671 122.5 127.671 122.5 C 124.858 122.5 122.858 121.875 122.858 120.125 C 122.858 118.813 123.858 118.25 125.421 118 L 125.421 117.938 C 124.108 117.813 123.358 117.063 123.358 115.875 C 123.358 114.688 124.233 114 125.483 113.75 C 124.171 113.438 123.296 112.25 123.358 110.875 C 123.358 108.875 124.858 107.313 127.733 107.313 C 128.983 107.313 130.233 107.563 131.358 108.063 C 131.233 107.875 131.233 107.688 131.233 107.5 C 131.233 106.875 131.733 106.313 132.358 106.313 C 132.421 106.313 132.421 106.313 132.483 106.313 C 133.171 106.313 133.733 106.813 133.733 107.5 C 133.733 107.563 133.733 107.563 133.733 107.625 C 133.796 108.313 133.296 108.938 132.608 109 C 132.546 109 132.421 109 132.358 109 C 131.733 108.938 131.108 108.813 130.546 108.5 L 130.546 108.75 C 131.421 109.125 131.921 110 131.921 110.938 C 131.921 113.125 129.733 114.125 127.733 114.125 C 127.233 114.125 126.796 114.063 126.358 113.938 C 125.858 114.125 125.546 114.375 125.546 114.875 C 125.546 115.375 125.796 115.563 126.358 115.563 L 129.858 115.438 Z  M 125.296 119.688 C 125.296 120.875 126.171 121.438 127.733 121.438 C 129.546 121.438 130.921 120.938 130.921 119.5 C 130.921 118.625 130.483 118.125 129.108 118.125 L 126.233 118.125 C 125.671 118.438 125.296 119.063 125.296 119.688 L 125.296 119.688 Z  M 127.671 108.25 C 126.483 108.25 126.296 109.125 126.296 110.625 C 126.296 112.125 126.483 113 127.671 113 C 128.858 113 129.046 112.125 129.046 110.625 C 129.046 109.125 128.858 108.25 127.671 108.25 Z " fill="rgb(255,255,255)"/><path d=" M 137.983 117.688 C 134.921 117.688 132.858 115.938 132.858 112.5 C 132.858 109.063 134.858 107.313 137.983 107.313 C 141.108 107.313 143.108 109.063 143.108 112.5 C 143.108 115.938 141.108 117.688 137.983 117.688 Z  M 137.983 116.625 C 139.483 116.625 139.921 115.125 139.921 112.438 C 139.921 109.75 139.483 108.313 137.983 108.313 C 136.483 108.313 136.046 109.813 136.046 112.438 C 136.046 115.063 136.483 116.625 137.983 116.625 Z " fill="rgb(255,255,255)"/><path d=" M 155.108 116.75 L 154.796 117.437 L 149.796 117.437 L 149.796 116.812 L 150.733 116.375 L 150.733 111.375 C 150.733 109.875 149.983 109.375 149.108 109.375 C 148.421 109.375 147.796 109.687 147.296 110.125 L 147.296 116.312 L 148.671 116.75 L 148.358 117.437 L 143.358 117.437 L 143.358 116.812 L 144.296 116.375 L 144.296 110.125 L 143.358 108.625 L 143.358 108.375 L 146.796 107.25 L 147.296 107.25 L 147.233 109.25 L 147.296 109.25 C 147.983 108 149.358 107.25 150.796 107.25 C 152.483 107.25 153.733 108.437 153.733 110.75 L 153.733 116.312 L 155.108 116.75 Z " fill="rgb(255,255,255)"/><path d=" M 164.296 114.687 C 164.296 113.437 163.671 112.875 162.171 112.25 L 160.546 111.562 C 158.858 111 157.733 109.375 157.858 107.625 C 157.858 104.875 159.983 103.75 162.171 103.75 C 163.171 103.75 164.108 103.937 165.046 104.25 L 166.171 103.75 L 166.358 107.562 L 165.733 107.687 L 164.608 106.25 C 164.108 105.312 163.108 104.75 162.046 104.812 C 161.108 104.75 160.296 105.437 160.233 106.375 C 160.233 106.437 160.233 106.5 160.233 106.562 C 160.233 107.625 160.733 108.25 162.108 108.75 L 163.796 109.437 C 165.921 110.312 166.858 111.5 166.858 113.625 C 166.858 116.375 164.796 117.687 162.358 117.687 C 161.296 117.687 160.171 117.437 159.233 116.937 L 157.983 117.687 L 157.608 113.375 L 158.296 113.25 L 159.421 114.875 C 160.171 116.062 161.046 116.625 162.296 116.625 C 163.233 116.687 164.108 116 164.233 115.062 C 164.296 114.937 164.296 114.812 164.296 114.687 Z " fill="rgb(255,255,255)"/><path d=" M 167.108 107.937 L 170.733 104.812 L 171.421 104.812 L 171.421 107.5 L 174.421 107.5 L 174.233 108.687 L 171.421 108.687 L 171.421 114.062 C 171.421 115.375 171.921 115.875 172.858 115.875 C 173.483 115.875 174.046 115.687 174.546 115.375 L 174.796 115.937 C 174.046 117.062 172.796 117.687 171.483 117.625 C 169.671 117.625 168.483 116.75 168.483 114.375 L 168.483 108.625 L 167.108 108.625 L 167.108 107.937 Z " fill="rgb(255,255,255)"/><path d=" M 183.421 115.25 C 183.421 116.25 183.796 116.5 184.858 116.375 L 184.921 116.813 C 184.296 117.375 183.421 117.688 182.546 117.625 C 181.546 117.625 180.733 117.188 180.546 116.188 L 180.483 116.188 C 179.983 117.188 178.983 117.688 177.733 117.688 C 176.233 117.688 174.921 116.875 174.921 114.938 C 174.921 112.938 176.546 111.938 179.046 111.938 C 179.483 111.938 179.983 112 180.421 112.125 L 180.421 111.25 C 180.421 109.938 179.546 109.25 178.233 109.25 C 177.296 109.25 176.358 109.5 175.483 109.938 L 175.233 109.25 C 176.296 107.875 177.921 107.125 179.671 107.25 C 181.546 107.25 183.421 108.125 183.421 110.875 L 183.421 115.25 Z  M 179.921 113 C 178.546 113 177.796 113.313 177.796 114.563 C 177.733 115.25 178.171 115.875 178.858 116 C 178.921 116 178.983 116 179.108 116 C 179.608 116 180.046 115.875 180.421 115.5 L 180.421 113 L 179.921 113 Z " fill="rgb(255,255,255)"/><path d=" M 183.858 107.937 L 187.483 104.812 L 188.171 104.812 L 188.171 107.5 L 191.171 107.5 L 190.983 108.687 L 188.171 108.687 L 188.171 114.062 C 188.171 115.375 188.671 115.875 189.608 115.875 C 190.233 115.875 190.796 115.687 191.296 115.375 L 191.546 115.937 C 190.796 117.062 189.546 117.687 188.233 117.625 C 186.421 117.625 185.233 116.75 185.233 114.375 L 185.233 108.625 L 183.858 108.625 L 183.858 107.937 Z " fill="rgb(255,255,255)"/><path d=" M 197.171 115.75 C 198.046 115.75 198.983 115.438 199.608 114.875 L 200.046 115.375 C 199.296 117 197.921 117.688 195.983 117.688 C 193.358 117.688 191.358 116 191.358 112.625 C 191.358 109.25 193.671 107.313 196.421 107.313 C 198.671 107.313 200.233 108.625 200.233 111 C 200.233 111.438 200.171 111.875 200.108 112.313 L 194.233 112.313 C 194.296 114.313 195.233 115.75 197.171 115.75 Z  M 194.296 111.188 L 197.483 111.188 C 197.546 110.938 197.546 110.625 197.546 110.313 C 197.546 109.25 197.233 108.313 196.171 108.313 C 195.108 108.313 194.483 109.25 194.296 111.188 L 194.296 111.188 Z " fill="rgb(255,255,255)"/><path d=" M 103.421 130.938 C 103.421 134.25 101.233 135.938 98.296 135.938 C 95.233 135.938 93.108 134.688 93.108 131.188 L 93.108 123.562 L 91.421 123.062 L 91.608 122.312 L 96.733 122.312 L 96.921 123.062 L 95.233 123.562 L 95.233 130.875 C 95.233 133.5 96.358 134.688 98.546 134.688 C 100.733 134.688 102.108 133.5 102.108 130.688 L 102.108 123.562 L 100.358 123.062 L 100.546 122.312 L 104.921 122.312 L 105.108 123.062 L 103.421 123.562 L 103.421 130.938 Z " fill="rgb(0,0,0)"/><path d=" M 115.358 135.063 L 115.108 135.75 L 110.733 135.75 L 110.733 135.125 L 111.796 134.75 L 111.796 129.125 C 111.796 127.688 110.858 127.375 110.108 127.375 C 109.233 127.375 108.421 127.688 107.733 128.25 L 107.733 134.625 L 109.358 135.063 L 109.046 135.75 L 104.671 135.75 L 104.671 135.125 L 105.733 134.75 L 105.733 128.125 L 104.608 126.875 L 104.608 126.625 L 107.358 125.562 L 107.733 125.562 L 107.671 127.5 L 107.796 127.5 C 108.483 126.312 109.733 125.562 111.108 125.562 C 112.421 125.562 113.796 126.375 113.796 128.688 L 113.796 134.625 L 115.358 135.063 Z " fill="rgb(0,0,0)"/><path d=" M 120.296 135.063 L 119.983 135.75 L 115.608 135.75 L 115.608 135.125 L 116.671 134.75 L 116.671 128.125 L 115.546 126.875 L 115.546 126.625 L 118.296 125.563 L 118.671 125.563 L 118.671 134.688 L 120.296 135.063 Z  M 117.671 121.125 C 118.421 121.125 119.108 121.75 119.108 122.563 C 119.108 123.313 118.483 124 117.671 124 C 116.921 124 116.233 123.375 116.233 122.563 C 116.233 121.813 116.858 121.188 117.671 121.125 C 117.671 121.125 117.671 121.125 117.671 121.125 Z " fill="rgb(0,0,0)"/><path d=" M 127.233 126.937 L 125.733 126.437 L 125.858 125.75 L 129.546 125.75 L 129.671 126.437 L 128.608 126.875 L 125.171 135.75 L 124.046 135.75 L 120.421 127 L 119.421 126.375 L 119.608 125.75 L 123.796 125.75 L 123.983 126.437 L 122.546 126.812 L 124.171 130.813 C 124.546 131.688 124.796 132.625 124.983 133.563 L 125.108 133.563 C 125.296 132.625 125.608 131.688 125.921 130.75 L 127.233 126.937 Z " fill="rgb(0,0,0)"/><path d=" M 133.983 134.5 C 134.983 134.5 135.983 134.188 136.796 133.563 L 137.108 134.063 C 136.296 135.313 134.858 136.063 133.358 135.938 C 130.921 135.938 128.983 134.25 128.983 130.813 C 128.983 127.375 131.108 125.5 133.671 125.5 C 135.733 125.5 137.233 126.75 137.233 129.063 C 137.233 129.438 137.171 129.875 137.108 130.25 L 130.921 130.25 C 130.921 132.938 132.108 134.5 133.983 134.5 Z  M 130.983 129.375 L 135.171 129.375 C 135.171 129.188 135.171 128.938 135.171 128.75 C 135.171 127.313 134.608 126.563 133.421 126.563 C 132.233 126.563 131.296 127.438 130.983 129.375 Z " fill="rgb(0,0,0)"/><path d=" M 142.733 135.063 L 142.421 135.75 L 137.608 135.75 L 137.608 135.125 L 138.671 134.75 L 138.671 128.125 L 137.546 126.875 L 137.546 126.625 L 140.296 125.562 L 140.671 125.562 L 140.608 127.937 L 140.671 127.937 C 141.233 126.687 142.296 125.562 143.546 125.562 C 144.608 125.562 145.233 126.187 145.233 127.062 C 145.296 127.75 144.796 128.375 144.046 128.438 C 143.983 128.438 143.921 128.438 143.921 128.438 C 143.233 128.5 142.671 127.937 142.608 127.25 C 142.608 127.187 142.608 127.125 142.608 127.062 C 141.796 127.5 141.108 128.125 140.671 128.938 L 140.671 134.75 L 142.733 135.063 Z " fill="rgb(0,0,0)"/><path d=" M 145.858 132.5 C 146.796 134.563 147.733 135.062 148.921 135.062 C 149.921 135.062 150.608 134.688 150.608 133.625 C 150.608 132.75 150.108 132.25 148.983 131.875 L 147.671 131.438 C 146.296 130.938 145.421 130.125 145.421 128.438 C 145.421 126.5 146.858 125.562 148.733 125.562 C 149.358 125.562 149.983 125.75 150.546 126 L 151.671 125.625 L 151.858 128.563 L 151.358 128.75 C 150.358 127.062 149.546 126.562 148.608 126.562 C 147.858 126.437 147.171 127 147.046 127.75 C 147.046 127.812 147.046 127.875 147.046 127.937 C 147.046 128.75 147.483 129.313 148.546 129.687 L 149.858 130.125 C 151.358 130.625 152.296 131.438 152.296 133.187 C 152.296 135.188 150.796 136.062 148.733 136.062 C 147.921 136.062 147.171 135.875 146.483 135.562 L 145.483 136.062 L 145.296 132.75 L 145.858 132.5 Z " fill="rgb(0,0,0)"/><path d=" M 157.546 135.063 L 157.233 135.75 L 152.858 135.75 L 152.858 135.125 L 153.921 134.75 L 153.921 128.125 L 152.796 126.875 L 152.796 126.625 L 155.546 125.563 L 155.921 125.563 L 155.921 134.688 L 157.546 135.063 Z  M 154.921 121.125 C 155.671 121.125 156.358 121.75 156.296 122.563 C 156.296 123.313 155.671 124 154.858 123.938 C 154.108 123.938 153.483 123.313 153.483 122.563 C 153.483 121.813 154.108 121.188 154.921 121.125 C 154.858 121.125 154.858 121.125 154.921 121.125 Z " fill="rgb(0,0,0)"/><path d=" M 156.858 126.25 L 159.733 123.125 L 160.171 123.125 L 160.171 125.812 L 163.483 125.812 L 163.296 126.875 L 160.108 126.875 L 160.108 132.813 C 160.108 134.063 160.671 134.625 161.608 134.625 C 162.233 134.625 162.921 134.438 163.483 134.125 L 163.733 134.688 C 162.921 135.563 161.796 136 160.608 135.938 C 159.108 135.938 158.108 135.125 158.108 133.125 L 158.108 126.875 L 156.796 126.875 L 156.858 126.25 Z " fill="rgb(0,0,0)"/><path d=" M 163.483 127 L 162.483 126.375 L 162.671 125.75 L 166.921 125.75 L 167.108 126.437 L 165.671 126.812 L 167.296 131.125 C 167.671 132.063 167.921 133.063 168.046 134 L 168.108 134 C 168.108 134 168.483 132.563 168.983 131.063 L 170.358 126.875 L 168.858 126.375 L 168.983 125.687 L 172.608 125.687 L 172.733 126.375 L 171.671 126.812 L 168.483 135.563 C 167.046 139.438 165.858 140.688 163.983 140.688 C 162.796 140.688 162.171 140 162.171 139.125 C 162.108 138.438 162.671 137.813 163.358 137.813 C 163.421 137.813 163.421 137.813 163.483 137.813 C 164.108 137.813 164.608 138.25 164.671 138.875 C 164.671 138.938 164.671 138.938 164.671 139 C 164.671 139.25 164.608 139.563 164.421 139.75 C 165.358 139.75 166.546 138.063 167.171 136.125 L 163.483 127 Z " fill="rgb(0,0,0)"/></g></svg>