<?xml version="1.0" standalone="no"?><!-- Generator: Gravit.io --><svg xmlns="http://www.w3.org/2000/svg" xmlns:xlink="http://www.w3.org/1999/xlink" style="isolation:isolate" viewBox="0 0 255.1 291.558" width="255.1" height="291.558"><defs><clipPath id="_clipPath_Re8Zkl59DpKVfpjq9bPKe5U3ElPtKjkJ"><rect width="255.1" height="291.558"/></clipPath></defs><g clip-path="url(#_clipPath_Re8Zkl59DpKVfpjq9bPKe5U3ElPtKjkJ)"><rect width="255.1" height="291.558" style="fill:rgb(0,0,0)" fill-opacity="0"/><path d=" M 99.427 113.601 L 99.427 178.084 L 93.98 178.084 L 56.91 122.901 L 56.91 178.084 L 51.419 178.084 L 51.419 113.601 L 56.91 113.601 L 94.024 168.828 L 94.024 113.601 L 99.427 113.601 L 99.427 113.601 Z  M 61.703 248.409 L 7.749 217.259 C 6.459 216.508 5.666 215.155 5.666 213.659 L 5.666 213.659 L 5.666 151.358 L 5.666 140.02 L 5.666 77.748 C 5.739 76.424 6.596 74.769 7.777 74.105 L 7.777 74.105 L 61.703 42.969 L 61.703 42.969 Q 63.389 42.126 71.524 37.3 L 125.435 6.164 C 126.605 5.544 128.495 5.509 129.658 6.164 L 129.658 6.164 L 183.584 37.3 C 186.653 39.346 190.105 41.319 193.405 42.969 L 193.405 42.969 L 247.359 74.119 C 248.648 74.864 249.428 76.232 249.428 77.719 L 249.428 77.719 L 249.428 140.02 L 249.428 151.358 L 249.428 213.659 C 249.428 215.15 248.641 216.504 247.359 217.259 L 247.359 217.259 L 193.405 248.409 C 190.103 250.061 186.656 252.03 183.584 254.078 L 183.584 254.078 L 129.658 285.2 C 128.558 285.888 126.543 285.852 125.435 285.2 L 125.435 285.2 L 61.703 248.409 L 61.703 248.409 L 61.703 248.409 Z  M 122.641 290.135 L 68.684 258.983 C 65.411 257.094 62.139 255.204 58.866 253.314 L 58.866 253.314 L 4.909 222.163 C 2.046 220.51 0 216.966 0 213.659 L 0 213.659 L 0 151.356 C 0 147.577 0 143.798 0 140.018 L 0 140.018 L 0 77.715 C 0 74.409 2.046 70.865 4.909 69.212 L 4.909 69.212 L 58.866 38.06 C 62.139 36.171 65.411 34.281 68.684 32.391 L 68.684 32.391 L 122.641 1.24 C 125.504 -0.413 129.596 -0.413 132.459 1.24 L 132.459 1.24 L 186.416 32.391 C 190.027 34.477 192.623 35.975 196.234 38.06 L 196.234 38.06 L 250.191 69.212 C 253.054 70.865 255.1 74.409 255.1 77.715 L 255.1 77.715 L 255.1 140.018 C 255.1 143.798 255.1 147.577 255.1 151.356 L 255.1 151.356 L 255.1 213.659 C 255.1 216.966 253.054 220.51 250.191 222.163 L 250.191 222.163 L 196.234 253.314 C 192.616 255.404 190.034 256.894 186.416 258.983 L 186.416 258.983 L 132.459 290.135 C 129.596 291.788 125.504 291.788 122.641 290.135 L 122.641 290.135 L 122.641 290.135 L 122.641 290.135 Z  M 200.648 113.291 L 200.648 177.774 L 195.156 177.774 L 195.156 146.861 L 158.308 146.861 L 158.308 177.774 L 152.861 177.774 L 152.861 113.291 L 158.308 113.291 L 158.308 142.255 L 195.156 142.255 L 195.156 113.291 L 200.648 113.291 Z " fill-rule="evenodd" fill="rgb(0,0,0)"/></g></svg>