<?xml version="1.0" standalone="no"?><!-- Generator: Gravit.io --><svg xmlns="http://www.w3.org/2000/svg" xmlns:xlink="http://www.w3.org/1999/xlink" style="isolation:isolate" viewBox="421.452 289.981 756.778 258.019" width="756.778" height="258.019"><g><path d=" M 844.961 392.534 C 790.828 399.707 787.975 420.274 787.975 426.811 C 787.975 442.932 797.732 451.979 812.49 451.979 C 825.202 451.979 837.686 446.983 847.23 438.808 C 850.175 446.307 856.082 450.386 864.933 450.386 C 893.996 450.386 892.134 449.481 892.134 444.714 C 892.134 443.122 872.197 443.58 871.292 443.58 C 859.485 443.58 861.536 430.185 861.536 422.463 L 861.536 375.468 C 861.536 356.167 839.737 352.082 825.661 352.082 C 800.459 351.4 787.74 367.292 787.517 377.736 C 787.517 381.821 794.329 385.23 798.19 385.23 C 802.498 385.23 803.18 383.414 803.18 380.916 C 803.18 378.418 801.816 375.015 801.816 371.606 C 801.816 359.117 810.679 357.983 821.576 357.983 C 835.652 357.983 844.961 365.929 844.961 377.736 L 844.961 392.534 Z  M 844.961 427.006 C 844.961 439.037 829.522 445.396 821.341 445.396 C 809.31 445.396 802.733 436.797 802.733 423.861 C 802.733 403.878 830.427 400.246 844.961 397.066 L 844.961 427.006 Z " fill="rgb(0,79,158)"/><path d=" M 909.099 379.784 C 908.876 376.146 916.822 362.07 935.9 362.07 C 954.284 362.07 962.459 379.102 962.459 390.457 L 962.459 432.909 C 962.459 447.667 952.691 443.124 952.691 447.667 C 952.691 449.936 953.826 450.388 956.776 450.388 C 959.732 450.388 964.499 449.483 973.127 449.483 C 984.247 449.483 989.93 450.388 992.875 450.388 C 995.149 450.388 996.736 449.936 996.736 447.214 C 996.736 441.084 979.033 447.667 979.033 431.998 L 979.033 394.542 C 979.033 377.286 972.445 352.084 942.018 352.084 C 919.996 352.084 908.653 371.609 909.099 368.882 L 909.099 353.9 C 909.099 351.632 907.747 350.268 906.378 350.268 C 901.153 350.268 896.61 357.533 877.768 361.617 C 876.639 361.846 875.734 362.757 875.734 364.115 C 875.734 368.882 892.525 362.981 892.525 376.604 L 892.525 432.909 C 892.525 447.667 878.787 441.428 878.787 446.836 C 878.787 449.105 880.265 450.165 883.216 450.165 C 885.948 450.165 890.48 449.483 902.522 449.483 C 915.688 449.483 920.231 450.388 924.081 450.388 C 927.495 450.388 929.082 449.936 929.082 447.214 C 929.082 441.084 909.099 447.667 909.099 431.998 L 909.099 379.784 Z " fill="rgb(0,79,158)"/><path d=" M 1008.753 385.913 C 1008.753 373.424 1018.745 357.303 1032.821 357.303 C 1045.31 357.303 1058.022 368.658 1058.022 381.37 C 1058.022 384.779 1056.653 385.913 1053.479 385.913 L 1008.753 385.913 Z  M 1069.143 392.044 C 1074.367 392.044 1076.877 392.267 1076.877 388.182 C 1076.877 379.102 1064.611 352.084 1036.682 352.084 C 1008.306 352.084 992.179 376.375 992.179 405.438 C 992.179 420.425 1003.987 451.98 1038.045 451.98 C 1058.481 451.98 1078.229 435.636 1078.229 430.411 C 1078.229 429.735 1078.229 428.824 1077.323 428.824 C 1072.322 428.824 1064.834 440.625 1045.31 440.625 C 1031.457 440.625 1008.753 429.5 1008.753 392.044 L 1069.143 392.044 Z " fill="rgb(0,79,158)"/><path d=" M 717.813 312.261 C 717.813 292.685 734.238 298.311 734.238 293.132 C 734.238 290.434 732.886 289.981 729.964 289.981 C 726.584 289.981 721.182 290.881 708.36 290.881 C 697.338 290.881 690.354 289.981 685.633 289.981 C 682.7 289.981 681.125 290.434 681.125 292.909 C 681.125 297.412 700.036 295.831 700.036 307.535 L 700.036 421.634 C 700.036 432.209 699.584 438.511 693.734 441.21 C 686.527 444.813 684.281 444.361 683.829 447.065 C 683.829 448.864 685.175 449.311 687.198 449.311 C 696.209 449.311 705.662 448.64 714.657 448.411 C 731.769 447.964 748.864 449.311 765.971 449.311 C 772.353 449.311 784.997 450.181 785.948 447.712 C 790.291 436.443 791.677 434.02 791.677 425.913 C 791.677 425.466 790.279 420.723 789.025 424.28 C 786.699 430.921 781.319 433.43 778.632 435.257 C 770.955 440.494 761.921 440.31 734.909 440.31 C 716.014 440.31 717.813 434.914 717.813 421.634 L 717.813 312.261 Z " fill="rgb(0,79,158)"/><path d=" M 421.452 500.345 C 421.452 518.283 434.182 530.502 451.953 530.502 C 471.443 530.502 477.596 524 477.677 523.651 L 479.67 514.983 C 479.756 514.553 479.332 514.032 478.897 514.032 C 478.37 514.032 477.854 514.553 477.677 515.16 C 476.376 519.142 467.886 527.804 454.291 527.804 C 437.654 527.804 428.991 512.731 428.991 497.658 C 428.991 481.548 437.138 470.279 454.021 470.279 C 465.199 470.279 471.357 475.905 476.725 485.186 C 477.075 485.788 477.677 488.039 478.719 488.039 C 480.197 488.039 479.412 485.186 479.24 480.586 C 478.988 474.954 478.988 473.568 478.026 473.568 C 477.161 473.568 476.634 474.433 475.952 474.433 C 473.437 474.433 468.928 467.759 452.646 467.759 C 434.365 467.759 421.452 482.408 421.452 500.345 Z " fill="rgb(0,79,158)"/><path d=" M 508.601 528.677 C 498.466 528.677 494.485 517.585 494.485 509.095 C 494.485 501.733 497.951 494.28 506.436 494.28 C 516.748 494.28 520.477 504.071 520.477 512.991 C 520.477 523.744 515.877 528.677 508.601 528.677 Z  M 507.822 530.498 C 518.484 530.498 526.538 522.346 526.538 511.69 C 526.538 495.58 514.324 492.366 507.742 492.366 C 496.822 492.366 488.418 501.475 488.418 512.126 C 488.418 523.819 496.564 530.498 507.822 530.498 Z " fill="rgb(0,79,158)"/><path d=" M 543.45 503.198 C 543.45 497.131 549.243 495.578 551.672 495.578 C 556.003 495.578 560.076 498.867 560.076 505.713 L 560.076 524 C 560.076 527.724 556.53 527.466 556.53 528.767 C 556.53 529.46 556.874 529.884 557.567 529.884 C 558.61 529.884 560.42 529.54 563.983 529.54 C 567.615 529.54 570.468 529.884 571.603 529.884 C 572.474 529.884 573.075 529.718 573.075 528.675 C 573.075 526.338 566.407 528.847 566.407 522.871 L 566.407 500.425 C 566.407 499.125 569.953 495.578 574.026 495.578 C 581.044 495.578 583.038 501.898 583.038 507.18 L 583.038 524 C 583.038 527.724 579.492 527.466 579.492 528.767 C 579.492 529.46 579.835 529.884 580.529 529.884 C 581.571 529.884 583.382 529.54 586.939 529.54 C 590.577 529.54 593.43 529.884 594.559 529.884 C 595.435 529.884 596.037 529.718 596.037 528.675 C 596.037 526.338 589.368 528.847 589.368 522.871 L 589.368 508.234 C 589.368 505.203 589.792 492.365 576.971 492.365 C 571.087 492.365 567.615 494.719 564.934 498.701 C 562.247 494.1 559.033 492.365 553.751 492.365 C 549.592 492.365 546.046 495.143 543.45 498.082 L 543.45 493.058 C 543.45 492.198 542.924 491.683 542.408 491.683 C 540.414 491.683 538.678 494.45 532.439 496.014 C 531.998 496.094 531.655 496.438 531.655 496.965 C 531.655 498.781 537.114 496.53 537.114 501.731 L 537.114 524 C 537.114 527.724 533.568 527.466 533.568 528.767 C 533.568 529.46 533.912 529.884 534.611 529.884 C 535.648 529.884 537.464 529.54 541.021 529.54 C 544.654 529.54 547.518 529.884 548.641 529.884 C 549.512 529.884 550.119 529.718 550.119 528.675 C 550.119 526.338 543.45 528.847 543.45 522.871 L 543.45 503.198 Z " fill="rgb(0,79,158)"/><path d=" M 608.75 503.198 C 608.75 497.131 614.559 495.578 616.982 495.578 C 621.313 495.578 625.387 498.867 625.387 505.713 L 625.387 524 C 625.387 527.724 621.84 527.466 621.84 528.767 C 621.84 529.46 622.19 529.884 622.883 529.884 C 623.909 529.884 625.736 529.54 629.294 529.54 C 632.932 529.54 635.785 529.884 636.914 529.884 C 637.773 529.884 638.392 529.718 638.392 528.675 C 638.392 526.338 631.711 528.847 631.711 522.871 L 631.711 500.425 C 631.711 499.125 635.269 495.578 639.343 495.578 C 646.355 495.578 648.349 501.898 648.349 507.18 L 648.349 524 C 648.349 527.724 644.802 527.466 644.802 528.767 C 644.802 529.46 645.146 529.884 645.833 529.884 C 646.87 529.884 648.698 529.54 652.244 529.54 C 655.888 529.54 658.747 529.884 659.875 529.884 C 660.735 529.884 661.353 529.718 661.353 528.675 C 661.353 526.338 654.673 528.847 654.673 522.871 L 654.673 508.234 C 654.673 505.203 655.109 492.365 642.281 492.365 C 636.386 492.365 632.932 494.719 630.245 498.701 C 627.558 494.1 624.35 492.365 619.068 492.365 C 614.903 492.365 611.356 495.143 608.75 498.082 L 608.75 493.058 C 608.75 492.198 608.234 491.683 607.707 491.683 C 605.719 491.683 603.983 494.45 597.75 496.014 C 597.315 496.094 596.965 496.438 596.965 496.965 C 596.965 498.781 602.425 496.53 602.425 501.731 L 602.425 524 C 602.425 527.724 598.879 527.466 598.879 528.767 C 598.879 529.46 599.228 529.884 599.921 529.884 C 600.953 529.884 602.774 529.54 606.332 529.54 C 609.97 529.54 612.823 529.884 613.952 529.884 C 614.817 529.884 615.43 529.718 615.43 528.675 C 615.43 526.338 608.75 528.847 608.75 522.871 L 608.75 503.198 Z " fill="rgb(0,79,158)"/><path d=" M 689.649 521.314 C 689.483 523.823 685.152 527.467 680.208 527.467 C 679.085 527.467 671.712 526.854 671.804 517.676 L 671.804 495.745 C 671.804 494.101 670.595 493.677 670.245 493.677 C 668.859 493.677 668.074 493.935 667.123 494.101 C 666.172 494.37 664.957 494.628 662.448 494.628 C 662.013 494.628 660.896 494.714 660.896 495.413 C 660.896 497.481 665.479 495.413 665.479 498.701 L 665.479 518.885 C 665.479 526.246 671.196 530.503 678.123 530.503 C 682.723 530.503 686.963 528.498 689.649 524.436 L 689.827 524.436 L 689.827 529.191 C 689.827 529.541 689.919 530.503 690.612 530.503 C 691.912 530.503 692.606 530.234 693.557 529.976 C 694.594 529.804 695.802 529.541 698.232 529.541 C 699.618 529.541 701.434 529.46 701.434 528.767 C 701.434 526.854 695.986 527.982 695.986 525.731 L 695.986 495.745 C 695.986 494.101 694.765 493.677 694.416 493.677 C 693.03 493.677 692.256 493.935 691.294 494.101 C 690.343 494.37 689.134 494.628 686.619 494.628 C 686.195 494.628 685.061 494.714 685.061 495.413 C 685.061 497.481 689.649 495.413 689.649 498.701 L 689.649 521.314 Z " fill="rgb(0,79,158)"/><path d=" M 716.862 502.941 C 716.782 501.555 719.818 496.181 727.088 496.181 C 734.107 496.181 737.229 502.683 737.229 507.014 L 737.229 523.216 C 737.229 528.842 733.499 527.123 733.499 528.842 C 733.499 529.718 733.94 529.884 735.069 529.884 C 736.186 529.884 738.008 529.541 741.302 529.541 C 745.542 529.541 747.713 529.884 748.841 529.884 C 749.701 529.884 750.308 529.718 750.308 528.675 C 750.308 526.338 743.548 528.842 743.548 522.872 L 743.548 508.567 C 743.548 501.99 741.044 492.365 729.426 492.365 C 721.027 492.365 716.696 499.819 716.862 498.776 L 716.862 493.058 C 716.862 492.199 716.347 491.683 715.82 491.683 C 713.832 491.683 712.107 494.45 704.911 496.015 C 704.476 496.095 704.127 496.438 704.127 496.966 C 704.127 498.776 710.543 496.53 710.543 501.732 L 710.543 523.216 C 710.543 528.842 705.427 527.123 705.427 528.842 C 705.427 529.718 705.863 529.884 706.991 529.884 C 708.034 529.884 709.758 529.541 714.359 529.541 C 719.383 529.541 721.113 529.884 722.58 529.884 C 723.892 529.884 724.493 529.718 724.493 528.675 C 724.493 526.338 716.862 528.842 716.862 522.872 L 716.862 502.941 Z " fill="rgb(0,79,158)"/><path d=" M 762.882 474.52 C 761.845 474.52 759.244 478.158 759.244 479.12 C 759.244 480.071 761.845 483.617 762.882 483.617 C 764.016 483.617 766.52 480.157 766.52 479.12 C 766.52 478.078 764.016 474.52 762.882 474.52 Z  M 759.759 522.174 C 759.759 530.063 755.955 526.774 755.955 528.934 C 756.035 529.805 756.563 529.885 757.256 529.885 C 758.207 529.885 760.452 529.541 763.231 529.541 C 766.789 529.541 769.476 529.885 771.292 529.885 C 772.42 529.885 772.936 529.627 772.936 528.934 C 772.936 526.682 766.096 528.59 766.096 524.167 L 766.096 493.059 C 766.096 492.2 765.568 491.684 765.053 491.684 C 763.065 491.684 761.329 494.451 755.778 496.015 C 755.342 496.095 754.993 496.439 754.993 496.966 C 754.993 498.777 759.759 496.531 759.759 501.733 L 759.759 522.174 Z " fill="rgb(0,79,158)"/><path d=" M 781.417 520.441 C 781.417 529.373 787.134 530.501 791.116 530.501 C 797.183 530.501 801.869 527.545 801.869 526.251 C 801.869 525.557 801.525 525.466 801.176 525.466 C 799.698 525.466 798.403 527.471 793.803 527.471 C 790.348 527.471 787.919 525.815 787.741 522.263 L 787.741 497.055 L 799.005 497.055 L 800.741 493.933 C 800.998 493.498 801.256 493.062 801.256 492.713 C 801.256 492.455 801.09 492.031 800.649 492.031 C 800.397 492.031 799.44 493.498 797.274 493.498 L 787.741 493.498 C 787.741 487.253 787.827 485.443 786.619 485.443 C 785.925 485.443 785.055 487.345 783.319 489.424 C 778.913 494.283 776.742 495.744 776.742 496.442 C 776.742 497.055 777.343 497.055 781.417 497.055 L 781.417 520.441 Z " fill="rgb(0,79,158)"/><path d=" M 835.775 499.394 C 837.511 494.192 840.45 496.363 840.45 494.37 C 840.45 493.676 839.848 493.327 838.806 493.327 C 837.946 493.327 836.377 493.676 834.389 493.676 C 831.971 493.676 830.585 493.327 829.542 493.327 C 827.978 493.327 826.935 493.407 826.935 494.278 C 826.935 496.18 832.487 494.885 832.487 499.56 C 832.487 500.168 832.487 500.947 831.444 504.069 L 824.775 523.651 L 815.5 500.087 L 815.678 499.91 C 815.844 500.694 815.076 499.394 815.076 498.008 C 815.076 494.536 820.009 496.272 820.009 494.45 C 820.009 493.499 819.482 493.327 818.187 493.327 C 816.795 493.327 814.807 493.676 811.776 493.676 C 809.433 493.676 807.531 493.327 805.709 493.327 C 804.5 493.327 803.973 493.499 803.973 494.37 C 803.973 495.578 807.273 495.659 808.047 497.572 L 819.407 525.553 C 820.175 527.38 821.138 529.282 821.138 531.362 C 821.138 538.122 813.249 544.613 813.249 546.526 C 813.249 547.22 815.242 547.128 816.451 547.128 C 817.671 547.128 819.224 547.128 819.316 546.87 L 835.775 499.394 Z " fill="rgb(0,79,158)"/><path d=" M 878.977 501.218 C 878.977 519.155 891.713 531.375 909.467 531.375 C 928.975 531.375 935.116 524.873 935.202 524.523 L 937.196 515.867 C 937.287 515.426 936.852 514.916 936.411 514.916 C 935.901 514.916 935.374 515.426 935.202 516.033 C 933.907 520.026 925.411 528.688 911.816 528.688 C 895.179 528.688 886.505 513.604 886.505 498.531 C 886.505 482.421 894.652 471.152 911.553 471.152 C 922.73 471.152 928.883 476.789 934.251 486.059 C 934.6 486.66 935.202 488.923 936.245 488.923 C 937.723 488.923 936.938 486.059 936.76 481.47 C 936.502 475.827 936.502 474.452 935.551 474.452 C 934.692 474.452 934.165 475.317 933.472 475.317 C 930.962 475.317 926.454 468.637 910.16 468.637 C 891.891 468.637 878.977 483.28 878.977 501.218 Z " fill="rgb(0,79,158)"/><path d=" M 964.376 529.549 C 954.247 529.549 950.265 518.458 950.265 509.968 C 950.265 502.606 953.725 495.152 962.216 495.152 C 972.534 495.152 976.258 504.943 976.258 513.875 C 976.258 524.616 971.657 529.549 964.376 529.549 Z  M 963.602 531.371 C 974.258 531.371 982.325 523.224 982.325 512.574 C 982.325 496.453 970.105 493.25 963.516 493.25 C 952.603 493.25 944.192 502.348 944.192 512.998 C 944.192 524.703 952.333 531.371 963.602 531.371 Z " fill="rgb(0,79,158)"/><path d=" M 998.861 467.252 C 998.861 466.393 998.334 465.866 997.819 465.866 C 995.831 465.866 994.095 468.638 987.426 470.208 C 986.991 470.288 986.641 470.632 986.641 471.153 C 986.641 472.975 992.537 470.724 992.537 475.92 L 992.537 524.874 C 992.537 528.598 988.286 528.34 988.286 529.641 C 988.286 530.42 988.635 530.769 989.328 530.769 C 990.199 530.769 991.843 530.42 996.088 530.42 C 1000.162 530.42 1002.843 530.769 1004.052 530.769 C 1005.364 530.769 1006.057 530.592 1006.057 529.549 C 1006.057 527.212 998.861 529.727 998.861 523.74 L 998.861 467.252 Z " fill="rgb(0,79,158)"/><path d=" M 1020.491 467.252 C 1020.491 466.393 1019.975 465.866 1019.448 465.866 C 1017.46 465.866 1015.724 468.638 1009.056 470.208 C 1008.632 470.288 1008.271 470.632 1008.271 471.153 C 1008.271 472.975 1014.166 470.724 1014.166 475.92 L 1014.166 524.874 C 1014.166 528.598 1009.926 528.34 1009.926 529.641 C 1009.926 530.42 1010.276 530.769 1010.969 530.769 C 1011.828 530.769 1013.473 530.42 1017.729 530.42 C 1021.791 530.42 1024.472 530.769 1025.693 530.769 C 1026.993 530.769 1027.686 530.592 1027.686 529.549 C 1027.686 527.212 1020.491 529.727 1020.491 523.74 L 1020.491 467.252 Z " fill="rgb(0,79,158)"/><path d=" M 1037.722 506.152 C 1037.722 501.386 1041.538 495.245 1046.912 495.245 C 1051.678 495.245 1056.519 499.576 1056.519 504.428 C 1056.519 505.729 1056.003 506.152 1054.795 506.152 L 1037.722 506.152 Z  M 1060.77 508.501 C 1062.764 508.501 1063.715 508.582 1063.715 507.023 C 1063.715 503.557 1059.04 493.251 1048.384 493.251 C 1037.556 493.251 1031.398 502.515 1031.398 513.606 C 1031.398 519.335 1035.912 531.372 1048.9 531.372 C 1056.702 531.372 1064.242 525.133 1064.242 523.139 C 1064.242 522.881 1064.242 522.532 1063.892 522.532 C 1061.979 522.532 1059.126 527.04 1051.678 527.04 C 1046.396 527.04 1037.722 522.79 1037.722 508.501 L 1060.77 508.501 Z " fill="rgb(0,79,158)"/><path d=" M 1073.618 538.736 C 1073.618 536.485 1075.182 532.503 1077.869 532.503 C 1078.562 532.503 1079.685 533.11 1086.966 533.362 C 1095.887 533.62 1098.917 533.804 1098.917 537.436 C 1098.917 540.558 1096.414 546.018 1084.537 546.018 C 1079.771 546.018 1073.618 544.545 1073.618 538.736 Z  M 1085.322 493.254 C 1077.611 493.254 1071.366 498.971 1071.366 506.849 C 1071.366 511.099 1073.36 515.339 1076.906 517.51 L 1076.906 517.676 C 1076.832 517.676 1072.409 521.234 1072.409 524.706 C 1072.409 527.645 1073.268 530.59 1075.698 531.541 C 1072.667 532.669 1069.379 535.27 1069.379 538.828 C 1069.379 545.932 1078.476 548 1084.01 548 C 1098.493 548 1103.082 540.816 1103.082 535.356 C 1103.082 526.785 1093.291 527.645 1086.016 527.645 C 1075.096 527.645 1075.789 524.179 1075.789 523.486 C 1075.789 521.492 1077.869 518.719 1079.949 518.719 C 1081.071 518.719 1081.507 519.412 1085.924 519.412 C 1093.801 519.412 1100.304 514.388 1100.304 506.15 C 1100.304 504.597 1100.046 503.045 1099.702 501.567 C 1102.899 499.573 1104.211 499.229 1104.211 492.555 C 1104.211 492.034 1104.297 491.168 1103.518 491.168 C 1102.297 491.168 1101.873 496.72 1097.708 496.72 C 1095.279 496.72 1092.506 493.254 1085.322 493.254 Z  M 1094.678 507.204 C 1094.678 512.744 1092.249 517.51 1086.182 517.51 C 1079.771 517.51 1077.342 511.266 1077.342 505.817 C 1077.342 500.18 1079.427 495.156 1085.838 495.156 C 1092.34 495.156 1094.678 501.744 1094.678 507.204 Z " fill="rgb(0,79,158)"/><path d=" M 1114.359 506.152 C 1114.359 501.386 1118.175 495.245 1123.548 495.245 C 1128.315 495.245 1133.168 499.576 1133.168 504.428 C 1133.168 505.729 1132.64 506.152 1131.432 506.152 L 1114.359 506.152 Z  M 1137.407 508.501 C 1139.401 508.501 1140.352 508.582 1140.352 507.023 C 1140.352 503.557 1135.677 493.251 1125.021 493.251 C 1114.193 493.251 1108.034 502.515 1108.034 513.606 C 1108.034 519.335 1112.549 531.372 1125.536 531.372 C 1133.339 531.372 1140.879 525.133 1140.879 523.139 C 1140.879 522.881 1140.879 522.532 1140.529 522.532 C 1138.627 522.532 1135.763 527.04 1128.315 527.04 C 1123.033 527.04 1114.359 522.79 1114.359 508.501 L 1137.407 508.501 Z " fill="rgb(0,79,158)"/><path d=" M 638.301 370.049 L 607.118 391.115 C 597.539 396.099 588.275 401.404 579.201 407.099 C 570.114 401.393 560.828 396.082 551.226 391.086 L 520.129 370.084 L 520.587 369.304 L 554.91 386.016 L 528.43 358.568 L 529.038 357.892 L 559.103 381.353 L 538.926 349.012 L 539.665 348.48 L 564.185 377.663 L 551.169 341.84 L 551.999 341.467 L 569.925 375.108 L 564.643 337.371 L 565.526 337.182 L 576.055 373.807 L 578.742 335.801 L 579.235 335.801 L 579.647 335.801 L 582.334 373.807 L 592.864 337.171 L 593.758 337.354 L 588.476 375.114 L 606.402 341.444 L 607.227 341.811 L 594.205 377.663 L 618.754 348.451 L 619.481 348.978 L 599.287 381.353 L 629.387 357.864 L 629.988 358.528 L 603.48 386.016 L 637.854 369.276 L 638.301 370.049 Z " fill="rgb(255,181,47)"/><path d=" M 575.961 414.198 L 579.221 416.289 L 582.464 414.198 C 606.669 398.632 634.867 384.75 666.251 372.949 L 666.251 449.202 L 492.123 449.202 L 492.123 372.926 C 523.541 384.733 551.751 398.62 575.961 414.198 Z " fill="rgb(0,79,158)"/><path d=" M 1154.887 504.004 C 1154.922 505.752 1155.941 506.41 1157.609 506.41 C 1159.018 506.41 1160.731 505.998 1160.731 504.262 C 1160.731 503.053 1159.734 502.561 1158.703 502.348 C 1156.658 501.902 1153.255 501.443 1153.255 498.653 C 1153.255 495.961 1155.718 494.964 1158.032 494.964 C 1160.147 494.964 1162.226 495.903 1162.226 498.31 L 1160.427 498.31 C 1160.347 496.923 1159.184 496.442 1157.941 496.442 C 1156.72 496.442 1155.053 496.889 1155.053 498.367 C 1155.053 499.776 1156.05 499.851 1157.139 500.2 C 1159.43 500.939 1162.541 500.939 1162.541 504.073 C 1162.541 506.892 1160.015 507.888 1157.505 507.888 C 1154.91 507.888 1153.02 506.777 1153.088 504.004 L 1154.887 504.004 Z " fill="rgb(0,79,158)"/><path d=" M 1176.505 496.451 L 1176.471 496.451 L 1172.501 507.628 L 1170.891 507.628 L 1166.915 496.451 L 1166.88 496.451 L 1166.88 507.628 L 1165.167 507.628 L 1165.167 495.219 L 1168.25 495.219 L 1171.819 505.446 L 1171.847 505.446 L 1175.354 495.219 L 1178.23 495.219 L 1178.23 507.628 L 1176.505 507.628 L 1176.505 496.451 Z " fill="rgb(0,79,158)"/></g></svg>