<?xml version="1.0" standalone="no"?><!-- Generator: Gravit.io --><svg xmlns="http://www.w3.org/2000/svg" xmlns:xlink="http://www.w3.org/1999/xlink" style="isolation:isolate" viewBox="0 0 256 291.558" width="256" height="291.558"><defs><clipPath id="_clipPath_46bO5Tr9P41ByABgVajP2FS6M92Dr1YF"><rect width="256" height="291.558"/></clipPath></defs><g clip-path="url(#_clipPath_46bO5Tr9P41ByABgVajP2FS6M92Dr1YF)"><rect width="256" height="291.558" style="fill:rgb(0,0,0)" fill-opacity="0"/><path d=" M 123.076 290.384 L 68.924 259.195 C 66.206 257.63 61.794 255.089 59.076 253.524 L 4.924 222.335 C 2.206 220.77 0 216.953 0 213.817 L 0 151.461 Q 0 145.779 0 140.097 L 0 77.74 C 0 74.604 2.206 70.788 4.924 69.223 L 59.076 38.034 C 61.794 36.469 66.206 33.928 68.924 32.362 L 123.076 1.174 C 125.794 -0.391 130.206 -0.391 132.924 1.174 L 187.076 32.362 C 189.794 33.928 194.206 36.469 196.924 38.034 L 251.076 69.223 C 253.794 70.788 256 74.604 256 77.74 L 256 140.097 Q 256 145.779 256 151.461 L 256 213.817 C 256 216.953 253.794 220.77 251.076 222.335 L 196.924 253.524 C 194.206 255.089 189.794 257.63 187.076 259.195 L 132.924 290.384 C 130.206 291.949 125.794 291.949 123.076 290.384 Z  M 123.069 273.355 L 76.308 246.426 C 73.591 244.862 69.178 242.32 66.461 240.755 L 19.7 213.827 C 16.983 212.262 14.777 208.446 14.777 205.31 L 14.777 151.461 Q 14.777 145.779 14.777 140.097 L 14.777 86.248 C 14.777 83.112 16.983 79.295 19.7 77.73 L 66.461 50.802 C 69.178 49.237 73.591 46.696 76.308 45.131 L 123.069 18.203 C 125.786 16.638 130.199 16.638 132.917 18.202 L 179.691 45.132 C 182.409 46.696 186.822 49.237 189.539 50.802 L 236.3 77.73 C 239.017 79.295 241.223 83.112 241.223 86.248 L 241.223 140.097 Q 241.223 145.779 241.223 151.461 L 241.223 205.31 C 241.223 208.446 239.017 212.262 236.3 213.827 L 189.539 240.755 C 186.822 242.32 182.409 244.861 179.691 246.426 L 132.917 273.355 C 130.199 274.92 125.786 274.92 123.069 273.355 Z  M 124.515 187.555 L 113.254 205.539 C 111.618 208.151 112.535 209.167 115.3 207.805 L 119.431 205.77 L 106.603 226.571 C 104.984 229.195 106.123 230.824 109.143 230.207 L 114.947 229.021 L 103.576 243.681 C 101.686 246.117 102.6 247.574 105.616 246.933 L 124.36 242.948 L 124.36 256.71 L 124.36 256.71 Q 127.48 256.71 130.6 256.71 L 130.6 256.71 L 130.6 242.948 L 149.344 246.933 C 152.359 247.574 153.274 246.117 151.384 243.681 L 140.013 229.021 L 145.816 230.207 C 148.837 230.824 149.975 229.195 148.357 226.571 L 135.528 205.77 L 139.659 207.805 C 142.425 209.167 143.342 208.151 141.706 205.539 L 130.444 187.555 C 128.808 184.942 126.152 184.942 124.515 187.555 Z  M 104.789 104.002 L 104.789 156.804 L 104.789 156.804 Q 103.375 158.243 100.698 159.013 L 100.698 159.013 L 100.698 159.013 Q 98.02 159.784 94.282 159.784 L 94.282 159.784 L 94.282 159.784 Q 90.544 159.784 87.21 158.653 L 87.21 158.653 L 87.21 158.653 Q 83.876 157.523 81.754 153.209 L 81.754 153.209 L 71.752 132.458 L 71.752 132.458 Q 70.236 129.273 69.024 126.448 L 69.024 126.448 L 69.024 126.448 Q 67.812 123.623 66.397 119.925 L 66.397 119.925 L 65.791 120.027 L 65.791 120.027 Q 66.195 125.575 66.246 131.328 L 66.246 131.328 L 66.246 131.328 Q 66.296 137.08 66.296 142.628 L 66.296 142.628 L 66.296 158.551 L 66.296 158.551 Q 65.185 158.859 62.912 159.167 L 62.912 159.167 L 62.912 159.167 Q 60.638 159.475 58.416 159.475 L 58.416 159.475 L 58.416 159.475 Q 56.193 159.475 54.475 159.167 L 54.475 159.167 L 54.475 159.167 Q 52.758 158.859 51.646 157.934 L 51.646 157.934 L 51.646 157.934 Q 50.535 157.01 49.929 155.418 L 49.929 155.418 L 49.929 155.418 Q 49.323 153.825 49.323 151.257 L 49.323 151.257 L 49.323 99.893 L 49.323 99.893 Q 50.737 97.838 53.667 96.811 L 53.667 96.811 L 53.667 96.811 Q 56.597 95.784 59.931 95.784 L 59.931 95.784 L 59.931 95.784 Q 63.669 95.784 67.054 96.965 L 67.054 96.965 L 67.054 96.965 Q 70.438 98.146 72.459 102.358 L 72.459 102.358 L 82.562 123.109 L 82.562 123.109 Q 84.078 126.294 85.29 129.119 L 85.29 129.119 L 85.29 129.119 Q 86.503 131.944 87.917 135.642 L 87.917 135.642 L 88.422 135.54 L 88.422 135.54 Q 88.018 129.992 87.917 124.445 L 87.917 124.445 L 87.917 124.445 Q 87.816 118.897 87.816 113.35 L 87.816 113.35 L 87.816 96.708 L 87.816 96.708 Q 88.927 96.4 91.2 96.092 L 91.2 96.092 L 91.2 96.092 Q 93.474 95.784 95.696 95.784 L 95.696 95.784 L 95.696 95.784 Q 100.142 95.784 102.466 97.376 L 102.466 97.376 L 102.466 97.376 Q 104.789 98.968 104.789 104.002 L 104.789 104.002 Z  M 204.379 104.351 L 204.379 158.854 L 204.379 158.854 Q 203.253 159.164 200.846 159.474 L 200.846 159.474 L 200.846 159.474 Q 198.44 159.784 196.085 159.784 L 196.085 159.784 L 196.085 159.784 Q 193.729 159.784 191.937 159.422 L 191.937 159.422 L 191.937 159.422 Q 190.145 159.061 188.917 158.132 L 188.917 158.132 L 188.917 158.132 Q 187.688 157.203 187.073 155.551 L 187.073 155.551 L 187.073 155.551 Q 186.459 153.9 186.459 151.216 L 186.459 151.216 L 186.459 135.113 L 166.798 135.113 L 166.798 158.854 L 166.798 158.854 Q 165.672 159.164 163.265 159.474 L 163.265 159.474 L 163.265 159.474 Q 160.859 159.784 158.504 159.784 L 158.504 159.784 L 158.504 159.784 Q 156.149 159.784 154.357 159.422 L 154.357 159.422 L 154.357 159.422 Q 152.565 159.061 151.336 158.132 L 151.336 158.132 L 151.336 158.132 Q 150.107 157.203 149.493 155.551 L 149.493 155.551 L 149.493 155.551 Q 148.878 153.9 148.878 151.216 L 148.878 151.216 L 148.878 96.713 L 148.878 96.713 Q 150.005 96.506 152.462 96.145 L 152.462 96.145 L 152.462 96.145 Q 154.92 95.784 157.173 95.784 L 157.173 95.784 L 157.173 95.784 Q 159.528 95.784 161.32 96.145 L 161.32 96.145 L 161.32 96.145 Q 163.112 96.506 164.341 97.435 L 164.341 97.435 L 164.341 97.435 Q 165.569 98.364 166.184 100.016 L 166.184 100.016 L 166.184 100.016 Q 166.798 101.667 166.798 104.351 L 166.798 104.351 L 166.798 120.867 L 186.459 120.867 L 186.459 96.713 L 186.459 96.713 Q 187.585 96.506 190.043 96.145 L 190.043 96.145 L 190.043 96.145 Q 192.501 95.784 194.753 95.784 L 194.753 95.784 L 194.753 95.784 Q 197.109 95.784 198.901 96.145 L 198.901 96.145 L 198.901 96.145 Q 200.693 96.506 201.921 97.435 L 201.921 97.435 L 201.921 97.435 Q 203.15 98.364 203.765 100.016 L 203.765 100.016 L 203.765 100.016 Q 204.379 101.667 204.379 104.351 L 204.379 104.351 Z " fill-rule="evenodd" fill="rgb(231,233,237)"/></g></svg>